<?xml version="1.0" encoding="UTF-8"?>
<svg xmlns="http://www.w3.org/2000/svg" version="1.1" viewBox="0 0 1920 1629">
  <defs>
    <style>
      .cls-1 {
        fill: #ff9700;
      }

      .cls-1, .cls-2, .cls-3 {
        fill-rule: evenodd;
      }

      .cls-2 {
        fill: #4d4d4d;
      }

      .cls-4 {
        font-family: Poppins-Light, Poppins;
        font-size: 146.4px;
        font-weight: 300;
      }

      .cls-3 {
        fill: #fff;
      }

      .cls-5 {
        display: none;
      }

      .cls-6 {
        fill: #3394d1;
      }
    </style>
  </defs>
  <!-- Generator: Adobe Illustrator 28.6.0, SVG Export Plug-In . SVG Version: 1.2.0 Build 709)  -->
  <g>
    <g id="Layer_1">
      <g class="cls-5">
        <g>
          <g>
            <path class="cls-3" d="M1221.6,610.1c9.6,6.5,0,11.9-5.6,16.8-3.5,3.1-7.5,7.1-9.6,9.6-26.2,31-19.8,90.2-19.2,143.9,9,3.4,34.1-6.5,35.2,7.2,1.1,13.3-15.9,7.6-26.4,12-13.7,5.7-9.6,33-9.6,55.2v24.7c0,15.1-1.2,28.2,10.4,33.6,9,4.2,25.2,1.6,26.3,10.4,2.2,17.5-34.8,6.3-44.8,5.6-17.8-1.3-25.6,3.1-42.3,4-12.2.7-19.6-2.9-17.6-11.2,1.8-7.5,25.5-6.2,30.4-12.8,3.4-4.5,2.4-15.7,2.4-24v-52.8c0-15.5,2.5-28.1-7.2-32.7-7.5-3.6-29.6,2.7-27.2-12.8,1.9-11.8,23.7-5.4,33.6-6.4,2.6-44.5-3-82.3,8-111.1,10.6-27.5,32-46.2,60-58.3,1.1-.5,1.9-.5,3.2-.8Z"/>
            <path class="cls-3" d="M1673.3,610.1c8.8,6.5-.3,12.7-3.2,15.2-4.1,3.6-9.7,8.2-12.8,12-25.6,31.4-18.8,89.3-18.3,143.1,10.9,2.6,34-5.3,35.1,7.2.8,8.4-9.4,9.7-14.4,10.4-9.7,1.4-16.4,1.3-20,8-4.7,8.8-1.6,35.1-1.6,48v24.8c0,16-1.7,28.8,9.6,34.4,11.4,5.6,26.6.2,27.2,11.2.9,16.1-31.5,5.7-44.8,4.8-15.6-1.1-27.3,3.2-43.2,4-12.3.6-19.1-4.1-16.8-11.2,1.9-5.8,8.8-5.4,16.8-7.2,7.6-1.8,13.2-3.9,15.2-8.8,2.3-5.7.8-17.7.8-25.6v-52.8c0-8,.8-18.4-2.4-23.2-3.5-5.3-9.8-5.2-18.4-6.4-7.7-1.1-14.5-3.2-14.4-9.6.2-13.4,24.1-7.2,34.4-8,2.7-44.6-3.1-80.3,7.2-109.5,7.4-20.8,21.7-35.8,40-48,7.4-5,14.2-10.4,24-12.8Z"/>
            <path class="cls-3" d="M286.3,634.1c23.8.3,52.4,4,72,10.4,20.3,6.7,36.7,18.2,50.4,30.4,25.8,23,52.4,60.6,52.7,108.7.3,48.2-25.7,86.6-53.6,111.1-26.9,23.5-57.9,35.5-105.5,39.1-2.8.2-6.2.9-9.6.8-1.3,0-7.2,1.9-7.2-2.4-1.9-8,5.9-5.9,8.8-6.4,15.3-2,26.9-4.2,40-10.4,48.6-23,87.9-68.2,83.2-144.6-3.6-57.3-39.1-95.7-80.7-116.8-12.1-6.1-23.6-8.6-39.2-10.4-3.8-.4-8.3-.3-12-2.4v-4.8c-.1-1.1-.2-2.3.8-2.4Z"/>
            <path class="cls-3" d="M1003.4,769.2c35.1-2.9,61.7,9.8,79.1,28,5.6,5.8,12.7,14.5,16.8,23.2,10.4,22,8,48.6,0,66.3-13.6,30.2-51.2,50.1-91.9,48.8-34-1.1-66.2-21.6-79.1-47.2-4.5-8.9-7.2-18.4-8-28.8-2.4-30.2,10.1-50.1,23.2-63.9,15.1-16.1,31.2-24,59.9-26.4ZM962.6,825.2c-9.5,29.4.8,64.5,16.8,78.3,16.6,14.3,46.2,16.8,64.7,4.8,6.5-4.2,13.6-12.3,17.6-19.2,25.4-44.7-2-105.9-54.4-100.8-26.5,2.6-38,15.9-44.8,36.8Z"/>
            <path class="cls-3" d="M1435.8,819.6c-6.4-6-.9-12.8,2.4-16.8,3.9-4.6,9.8-9,13.6-12,11.4-8.9,26.9-20,48-16.8,34.4,5.2,26.4,49.9,26.4,89.5s-3,34.8,1.6,44c1.9,3.8,6.8,5.3,12,7.2,6.1,2.3,11,3.6,9.6,9.6-2,8.6-34.2,2.8-46.4,3.2-14.9.5-39.8,8.2-39.9-5.6-.1-9.5,12.4-7.3,19.2-10.4,12.7-5.9,8.8-31.1,8.8-56s7.6-53.8-11.2-55.9c-20.7-2.3-24.1,22.2-44,20Z"/>
            <path class="cls-3" d="M714,918.7c2.9-4.1,9.2-3,14.4-4.8,12.7-4.3,12.8-13,12.8-32v-49.6c0-15.9,1.6-29.7-10.4-32-21.5-4.2-28.4,21.8-47.1,19.2-2-14.2,8.2-22.2,16.8-28.8,12.3-9.3,27.7-19.5,48-16,11.1,1.9,25.6,15.1,27.2,26.4,1.9,13.7,0,33.6,0,51.9s-4.4,50.3,6.4,57.6c6.3,4.2,21.5,1.1,20.8,12-.5,8.9-14.2,7.5-24.8,6.4-10.7-1.1-19.2-2.3-30.4-1.6-12.5.8-34.9,10.1-33.5-8.8Z"/>
            <path class="cls-3" d="M783.6,818c-2.6-10.8,6.2-17.3,12.8-23.2,10.6-9.4,22.8-18.4,40-20,16.5-1.5,32.6,5.4,37.6,19.2,2.5,6.9,2.3,17.4,2.4,27.2.2,19.9,1,35.1,0,56.8-.5,10.3-1.3,21.3,1.6,27.2,2,4,7.3,6.5,12,8,6.6,2.2,11.7,1.8,12.7,7.2,2,10.4-9.1,9.8-20.7,8.8-10.4-1-20-2.1-28.8-1.6-10.1.6-39.8,9.6-38.4-6.4.8-9.9,16.1-4.8,23.2-11.2,7.7-7,4-31.2,4-48.8v-26.4c0-16.6,3.9-31.9-10.4-34.4-11.8-2-19.9,6.8-24.8,10.4-5.8,4.2-13.3,12.8-23.1,7.2Z"/>
            <path class="cls-3" d="M556.5,778c5.8,6.8,3.5,13.7,3.2,20.8-.7,15.4,0,34.3,0,55.2s-3.2,43.3,2.4,52c5.9,9.2,28,2.5,24.8,17.6-2.5,11.9-38,2.8-53.6,4-9.1.7-37.9,9-36-8,1-8.7,19.3-7.8,23.2-12,6.7-7.2,4-38.1,4-52s3.7-43.9-2.4-53.6c-2.4-3.9-6.2-4.6-12-6.4-4.9-1.5-10.1-1.8-12-5.6-2.9-6.2.9-12.3,6.4-13.6,5.9-1.4,12.9,1.8,19.2,2.4,13.2,1.4,26-3.8,32.8-.8Z"/>
            <path class="cls-3" d="M1307.9,778c4.9,8.8,3.2,19.6,3.2,29.6v64.7c0,10.6-2,23.7.8,31.2,4,10.7,24,6.5,25.6,16,3,17.6-37.6,6.8-53.6,8-5.1.3-13.9,3.9-23.2,3.2-8.1-.6-14.6-6-12-13.6,2.4-7.3,18.6-4.7,23.2-10.4,5.8-7.3,3.2-37.4,3.2-50.4v-27.2c0-20,1.7-28.9-12.8-33.6-6.8-2.2-11.5-1.3-13.6-5.6-2.9-5.8,1.1-12.3,6.4-13.6,6.5-1.7,14.2,1.8,20.8,2.4,13.2,1.1,24.9-3.8,31.9-.8Z"/>
            <path class="cls-3" d="M1421.4,777.2c6.8,12.9,4.8,32.8,4.8,52.8s-1.9,51.9-.8,75.1c3.7,10.1,29.7,4.5,26.4,19.2-2.4,10.7-21.6,4.1-33.5,3.2-14.4-1.1-25.4,1.4-39.2,1.6-9.9.1-19-1-15.2-11.2,2.3-6.3,8-2.6,16.8-6.4,14-6,10.3-37.7,10.3-60s3.6-39-2.3-49.5c-2.2-3.9-6.7-5.3-12.8-7.2-6.8-2.1-11.4-2.7-12-8-.5-5.3,4.8-10,10.4-10.4,5-.3,9.4,1.8,15.2,2.4,11.6,1.3,23.3-3.3,32-1.6Z"/>
            <path class="cls-3" d="M670,779.6c8.2,29.1,3.7,79.4,4,114.3,0,3.6.2,8.9,1.6,12,4.1,9.1,24.4,6.2,25.6,15.2,1.8,14.4-25,7.1-34.4,6.4-3.8-.3-12.7-.5-19.2,0-9.9.8-32.2,6.8-34.4-3.2-2.9-13.7,17.5-7.8,24-16.8,6.1-8.4,3.2-34.7,3.2-49.5v-26.4c0-15.7,1.3-30.6-9.6-35.2-4.3-1.8-11.3,1.2-16.8-4.8-4.7-21.1,15.3-10.3,31.2-10.4,9.6,0,17.6-4.7,24.7-1.6Z"/>
          </g>
          <path class="cls-1" d="M537.3,702.1c17.7-3.4,34.5,13.6,28.8,31.2-7.8,24.2-56,17.8-47.2-15.2,1.9-7,7.8-13.9,18.4-16ZM1293.5,748.5c13.8,0,30.2-12.1,23.2-31.2-3.7-10.3-16.6-17-27.9-15.2-30,4.9-22.7,46.4,4.8,46.4Z"/>
        </g>
        <g>
          <path class="cls-6" d="M283.8,976.5c6.4-1.1,13.9-1.8,22.2-1.8,15,0,25.6,3.6,32.7,10.1,7.3,6.6,11.5,15.9,11.5,29s-4.2,24-11.6,31.4c-7.7,7.5-20.1,11.6-35.8,11.6s-13.7-.4-18.9-1v-79.3ZM294.3,1047.9c2.6.4,6.5.5,10.5.5,22.4,0,34.4-12.5,34.4-34.3.1-19.1-10.7-31.2-32.7-31.2s-9.5.5-12.2,1.1v63.9Z"/>
          <path class="cls-6" d="M377.4,981.8c0,3.6-2.5,6.5-6.7,6.5s-6.4-2.9-6.4-6.5,2.6-6.6,6.6-6.6,6.5,2.9,6.5,6.6ZM365.7,1056.1v-58h10.5v58h-10.5Z"/>
          <path class="cls-6" d="M396.1,1013.8c0-6.1-.2-10.9-.5-15.7h9.2l.5,9.5h.4c3.2-5.5,8.6-10.7,18.3-10.7s13.8,4.8,16.3,11.6h.2c1.8-3.4,4.2-5.8,6.6-7.5,3.5-2.6,7.2-4.1,12.7-4.1s19.2,5,19.2,25.2v34h-10.3v-32.7c0-11.3-4.2-17.9-12.6-17.9s-10.7,4.4-12.6,9.5c-.5,1.6-.8,3.4-.8,5.3v35.8h-10.3v-34.8c0-9.2-4.1-15.8-12.1-15.8s-11.4,5.3-13.1,10.5c-.6,1.4-.8,3.4-.8,5.2v34.9h-10.3v-42.3Z"/>
          <path class="cls-6" d="M504.3,1029c.2,14.3,9.2,20.1,19.9,20.1s12.2-1.3,16.1-3l1.9,7.5c-3.7,1.7-10.2,3.7-19.4,3.7-17.9,0-28.5-11.9-28.5-29.4s10.3-31.2,27.2-31.2,24,16.5,24,27.2-.1,3.7-.4,4.9h-40.7ZM535.2,1021.4c.1-6.6-2.8-17-14.6-17s-15.3,9.7-16.2,17h30.8Z"/>
          <path class="cls-6" d="M560.9,1013.8c0-6.1-.1-10.9-.5-15.7h9.3l.6,9.6h.2c2.9-5.4,9.6-10.8,19.2-10.8s20.5,4.8,20.5,24.7v34.5h-10.5v-33.4c0-9.3-3.5-17.1-13.4-17.1s-12.2,4.9-14.1,10.8c-.5,1.3-.7,3.1-.7,4.9v34.9h-10.5v-42.3Z"/>
          <path class="cls-6" d="M628.3,1045.4c3.2,1.9,8.7,4.1,14,4.1,7.5,0,11.1-3.7,11.1-8.6s-3-7.7-10.7-10.5c-10.5-3.8-15.5-9.5-15.5-16.4s7.7-17,20-17,11,1.6,14.1,3.6l-2.5,7.7c-2.3-1.4-6.5-3.5-11.9-3.5s-9.6,3.6-9.6,7.9,3.4,6.9,10.9,9.9c9.9,3.7,15.2,8.7,15.2,17.4s-8,17.5-21.6,17.5-12.2-1.7-16.3-4.1l2.5-7.9Z"/>
          <path class="cls-6" d="M691.4,981.8c0,3.6-2.5,6.5-6.7,6.5s-6.4-2.9-6.4-6.5,2.6-6.6,6.6-6.6,6.5,2.9,6.5,6.6ZM679.6,1056.1v-58h10.5v58h-10.5Z"/>
          <path class="cls-6" d="M762.6,1026.6c0,21.5-15,30.8-28.9,30.8s-27.8-11.5-27.8-29.8,12.8-30.7,28.8-30.7,27.9,12.1,27.9,29.7ZM716.7,1027.2c0,12.7,7.2,22.3,17.5,22.3s17.6-9.5,17.6-22.5-4.9-22.2-17.4-22.2-17.7,11.5-17.7,22.4Z"/>
          <path class="cls-6" d="M778.3,1013.8c0-6.1-.1-10.9-.5-15.7h9.3l.6,9.6h.2c2.9-5.4,9.6-10.8,19.2-10.8s20.5,4.8,20.5,24.7v34.5h-10.5v-33.4c0-9.3-3.5-17.1-13.4-17.1s-12.2,4.9-14.1,10.8c-.5,1.3-.7,3.1-.7,4.9v34.9h-10.5v-42.3Z"/>
          <path class="cls-6" d="M845.7,1045.4c3.2,1.9,8.7,4.1,14,4.1,7.5,0,11.1-3.7,11.1-8.6s-3-7.7-10.7-10.5c-10.5-3.8-15.5-9.5-15.5-16.4s7.7-17,20-17,11,1.6,14.1,3.6l-2.5,7.7c-2.3-1.4-6.5-3.5-11.9-3.5s-9.6,3.6-9.6,7.9,3.4,6.9,10.9,9.9c9.9,3.7,15.2,8.7,15.2,17.4s-8,17.5-21.6,17.5-12.2-1.7-16.3-4.1l2.5-7.9Z"/>
          <path class="cls-6" d="M977.3,1026.6c0,21.5-15,30.8-28.9,30.8s-27.8-11.5-27.8-29.8,12.8-30.7,28.8-30.7,27.9,12.1,27.9,29.7ZM931.4,1027.2c0,12.7,7.2,22.3,17.5,22.3s17.6-9.5,17.6-22.5-4.9-22.2-17.4-22.2-17.7,11.5-17.7,22.4Z"/>
          <path class="cls-6" d="M994.1,1056.1v-50h-8v-8h8v-2.8c0-8.1,1.9-15.6,6.7-20.3,4-3.8,9.2-5.4,14.1-5.4s6.9.8,9,1.7l-1.4,8.2c-1.6-.7-3.6-1.3-6.7-1.3-9,0-11.3,7.8-11.3,16.8v3.1h14v8h-14v50h-10.4Z"/>
          <path class="cls-6" d="M1069,975.3v80.8h-10.5v-80.8h10.5Z"/>
          <path class="cls-6" d="M1090.4,1013.8c0-6.1-.1-10.9-.5-15.7h9.3l.6,9.6h.2c2.9-5.4,9.6-10.8,19.2-10.8s20.5,4.8,20.5,24.7v34.5h-10.5v-33.4c0-9.3-3.5-17.1-13.4-17.1s-12.2,4.9-14.1,10.8c-.5,1.3-.7,3.1-.7,4.9v34.9h-10.5v-42.3Z"/>
          <path class="cls-6" d="M1160.4,1056.1v-50h-8v-8h8v-2.8c0-8.1,1.9-15.6,6.7-20.3,4-3.8,9.2-5.4,14.1-5.4s7,.8,9,1.7l-1.4,8.2c-1.6-.7-3.6-1.3-6.7-1.3-9,0-11.3,7.8-11.3,16.8v3.1h14v8h-14v50h-10.4Z"/>
          <path class="cls-6" d="M1247.6,1026.6c0,21.5-15,30.8-28.9,30.8s-27.8-11.5-27.8-29.8,12.8-30.7,28.8-30.7,27.9,12.1,27.9,29.7ZM1201.7,1027.2c0,12.7,7.2,22.3,17.5,22.3s17.6-9.5,17.6-22.5-4.9-22.2-17.4-22.2-17.7,11.5-17.7,22.4Z"/>
          <path class="cls-6" d="M1263.3,1016.1c0-6.8-.1-12.7-.5-18.1h9.2l.5,11.5h.4c2.6-7.8,9.1-12.7,16.2-12.7s1.9.1,2.9.2v9.9c-1.1-.2-2.2-.2-3.6-.2-7.4,0-12.7,5.5-14.1,13.4-.2,1.4-.4,3.2-.4,4.9v30.9h-10.5v-39.9Z"/>
          <path class="cls-6" d="M1305.4,1013.8c0-6.1-.2-10.9-.5-15.7h9.2l.5,9.5h.4c3.2-5.5,8.6-10.7,18.3-10.7s13.8,4.8,16.3,11.6h.2c1.8-3.4,4.2-5.8,6.6-7.5,3.5-2.6,7.2-4.1,12.7-4.1s19.2,5,19.2,25.2v34h-10.3v-32.7c0-11.3-4.2-17.9-12.6-17.9s-10.7,4.4-12.6,9.5c-.5,1.6-.8,3.4-.8,5.3v35.8h-10.3v-34.8c0-9.2-4.1-15.8-12.1-15.8s-11.4,5.3-13.1,10.5c-.6,1.4-.8,3.4-.8,5.2v34.9h-10.3v-42.3Z"/>
          <path class="cls-6" d="M1448.5,1042.2c0,5,.2,9.9.8,13.9h-9.5l-.8-7.3h-.4c-3.2,4.6-9.5,8.6-17.7,8.6-11.7,0-17.7-8.3-17.7-16.7,0-14,12.5-21.7,34.9-21.6v-1.2c0-4.7-1.3-13.4-13.2-13.3-5.5,0-11.1,1.6-15.2,4.3l-2.4-7.1c4.8-3,11.9-5,19.2-5,17.7,0,22.1,12.1,22.1,23.6v21.7ZM1438.3,1026.5c-11.5-.2-24.6,1.8-24.6,13.1s4.6,10.1,9.8,10.1c7.7,0,12.6-4.8,14.3-9.7.4-1.2.5-2.4.5-3.4v-10.1Z"/>
          <path class="cls-6" d="M1480.1,984.2v13.9h15.1v8h-15.1v31.3c0,7.2,2,11.3,7.9,11.3s4.6-.2,6.1-.7l.5,8c-2,.7-5.3,1.4-9.3,1.4s-8.9-1.7-11.4-4.4c-2.9-3.2-4.1-8.4-4.1-15.2v-31.6h-9v-8h9v-10.8l10.3-3.1Z"/>
          <path class="cls-6" d="M1521.2,981.8c0,3.6-2.5,6.5-6.7,6.5s-6.4-2.9-6.4-6.5,2.6-6.6,6.6-6.6,6.5,2.9,6.5,6.6ZM1509.5,1056.1v-58h10.5v58h-10.5Z"/>
          <path class="cls-6" d="M1592.4,1026.6c0,21.5-15,30.8-28.9,30.8s-27.8-11.5-27.8-29.8,12.8-30.7,28.8-30.7,27.9,12.1,27.9,29.7ZM1546.5,1027.2c0,12.7,7.2,22.3,17.5,22.3s17.6-9.5,17.6-22.5-4.9-22.2-17.4-22.2-17.7,11.5-17.7,22.4Z"/>
          <path class="cls-6" d="M1608.1,1013.8c0-6.1-.1-10.9-.5-15.7h9.3l.6,9.6h.2c2.9-5.4,9.6-10.8,19.2-10.8s20.5,4.8,20.5,24.7v34.5h-10.5v-33.4c0-9.3-3.5-17.1-13.4-17.1s-12.2,4.9-14.1,10.8c-.5,1.3-.7,3.1-.7,4.9v34.9h-10.5v-42.3Z"/>
        </g>
      </g>
      <g>
        <g>
          <g>
            <path class="cls-2" d="M3218.6-388.9c9.6,6.5,0,11.9-5.6,16.8-3.5,3.1-7.5,7.1-9.6,9.6-26.2,31-19.8,90.2-19.2,143.9,9,3.4,34.1-6.5,35.2,7.2,1.1,13.3-15.9,7.6-26.4,12-13.7,5.7-9.6,33-9.6,55.2v24.7c0,15.1-1.2,28.2,10.4,33.6,9,4.2,25.2,1.6,26.3,10.4,2.2,17.5-34.8,6.3-44.8,5.6-17.8-1.3-25.6,3.1-42.3,4-12.2.7-19.6-2.9-17.6-11.2,1.8-7.5,25.5-6.2,30.4-12.8,3.4-4.5,2.4-15.7,2.4-24v-52.8c0-15.5,2.5-28.1-7.2-32.7-7.5-3.6-29.6,2.7-27.2-12.8,1.9-11.8,23.7-5.4,33.6-6.4,2.6-44.5-3-82.3,8-111.1,10.6-27.5,32-46.2,60-58.3,1.1-.5,1.9-.5,3.2-.8Z"/>
            <path class="cls-2" d="M3670.3-388.9c8.8,6.5-.3,12.7-3.2,15.2-4.1,3.6-9.7,8.2-12.8,12-25.6,31.4-18.8,89.3-18.3,143.1,10.9,2.6,34-5.3,35.1,7.2.8,8.4-9.4,9.7-14.4,10.4-9.7,1.4-16.4,1.3-20,8-4.7,8.8-1.6,35.1-1.6,48v24.8c0,16-1.7,28.8,9.6,34.4,11.4,5.6,26.6.2,27.2,11.2.9,16.1-31.5,5.7-44.8,4.8-15.6-1.1-27.3,3.2-43.2,4-12.3.6-19.1-4.1-16.8-11.2,1.9-5.8,8.8-5.4,16.8-7.2,7.6-1.8,13.2-3.9,15.2-8.8,2.3-5.7.8-17.7.8-25.6v-52.8c0-8,.8-18.4-2.4-23.2-3.5-5.3-9.8-5.2-18.4-6.4-7.7-1.1-14.5-3.2-14.4-9.6.2-13.4,24.1-7.2,34.4-8,2.7-44.6-3.1-80.3,7.2-109.5,7.4-20.8,21.7-35.8,40-48,7.4-5,14.2-10.4,24-12.8Z"/>
            <path class="cls-2" d="M2283.3-364.9c23.8.3,52.4,4,72,10.4,20.3,6.7,36.7,18.2,50.4,30.4,25.8,23,52.4,60.6,52.7,108.7.3,48.2-25.7,86.6-53.6,111.1-26.9,23.5-57.9,35.5-105.5,39.1-2.8.2-6.2.9-9.6.8-1.3,0-7.2,1.9-7.2-2.4-1.9-8,5.9-5.9,8.8-6.4,15.3-2,26.9-4.2,40-10.4,48.6-23,87.9-68.2,83.2-144.6-3.6-57.3-39.1-95.7-80.7-116.8-12.1-6.1-23.6-8.6-39.2-10.4-3.8-.4-8.3-.3-12-2.4v-4.8c-.1-1.1-.2-2.3.8-2.4Z"/>
            <path class="cls-2" d="M3000.4-229.8c35.1-2.9,61.7,9.8,79.1,28,5.6,5.8,12.7,14.5,16.8,23.2,10.4,22,8,48.6,0,66.3-13.6,30.2-51.2,50.1-91.9,48.8-34-1.1-66.2-21.6-79.1-47.2-4.5-8.9-7.2-18.4-8-28.8-2.4-30.2,10.1-50.1,23.2-63.9,15.1-16.1,31.2-24,59.9-26.4ZM2959.6-173.8c-9.5,29.4.8,64.5,16.8,78.3,16.6,14.3,46.2,16.8,64.7,4.8,6.5-4.2,13.6-12.3,17.6-19.2,25.4-44.7-2-105.9-54.4-100.8-26.5,2.6-38,15.9-44.8,36.8Z"/>
            <path class="cls-2" d="M3432.8-179.4c-6.4-6-.9-12.8,2.4-16.8,3.9-4.6,9.8-9,13.6-12,11.4-8.9,26.9-20,48-16.8,34.4,5.2,26.4,49.9,26.4,89.5s-3,34.8,1.6,44c1.9,3.8,6.8,5.3,12,7.2,6.1,2.3,11,3.6,9.6,9.6-2,8.6-34.2,2.8-46.4,3.2-14.9.5-39.8,8.2-39.9-5.6-.1-9.5,12.4-7.3,19.2-10.4,12.7-5.9,8.8-31.1,8.8-56s7.6-53.8-11.2-55.9c-20.7-2.3-24.1,22.2-44,20Z"/>
            <path class="cls-2" d="M2711-80.3c2.9-4.1,9.2-3,14.4-4.8,12.7-4.3,12.8-13,12.8-32v-49.6c0-15.9,1.6-29.7-10.4-32-21.5-4.2-28.4,21.8-47.1,19.2-2-14.2,8.2-22.2,16.8-28.8,12.3-9.3,27.7-19.5,48-16,11.1,1.9,25.6,15.1,27.2,26.4,1.9,13.7,0,33.6,0,51.9s-4.4,50.3,6.4,57.6c6.3,4.2,21.5,1.1,20.8,12-.5,8.9-14.2,7.5-24.8,6.4-10.7-1.1-19.2-2.3-30.4-1.6-12.5.8-34.9,10.1-33.5-8.8Z"/>
            <path class="cls-2" d="M2780.6-181c-2.6-10.8,6.2-17.3,12.8-23.2,10.6-9.4,22.8-18.4,40-20,16.5-1.5,32.6,5.4,37.6,19.2,2.5,6.9,2.3,17.4,2.4,27.2.2,19.9,1,35.1,0,56.8-.5,10.3-1.3,21.3,1.6,27.2,2,4,7.3,6.5,12,8,6.6,2.2,11.7,1.8,12.7,7.2,2,10.4-9.1,9.8-20.7,8.8-10.4-1-20-2.1-28.8-1.6-10.1.6-39.8,9.6-38.4-6.4.8-9.9,16.1-4.8,23.2-11.2,7.7-7,4-31.2,4-48.8v-26.4c0-16.6,3.9-31.9-10.4-34.4-11.8-2-19.9,6.8-24.8,10.4-5.8,4.2-13.3,12.8-23.1,7.2Z"/>
            <path class="cls-2" d="M2553.5-221c5.8,6.8,3.5,13.7,3.2,20.8-.7,15.4,0,34.3,0,55.2s-3.2,43.3,2.4,52c5.9,9.2,28,2.5,24.8,17.6-2.5,11.9-38,2.8-53.6,4-9.1.7-37.9,9-36-8,1-8.7,19.3-7.8,23.2-12,6.7-7.2,4-38.1,4-52s3.7-43.9-2.4-53.6c-2.4-3.9-6.2-4.6-12-6.4-4.9-1.5-10.1-1.8-12-5.6-2.9-6.2.9-12.3,6.4-13.6,5.9-1.4,12.9,1.8,19.2,2.4,13.2,1.4,26-3.8,32.8-.8Z"/>
            <path class="cls-2" d="M3304.9-221c4.9,8.8,3.2,19.6,3.2,29.6v64.7c0,10.6-2,23.7.8,31.2,4,10.7,24,6.5,25.6,16,3,17.6-37.6,6.8-53.6,8-5.1.3-13.9,3.9-23.2,3.2-8.1-.6-14.6-6-12-13.6,2.4-7.3,18.6-4.7,23.2-10.4,5.8-7.3,3.2-37.4,3.2-50.4v-27.2c0-20,1.7-28.9-12.8-33.6-6.8-2.2-11.5-1.3-13.6-5.6-2.9-5.8,1.1-12.3,6.4-13.6,6.5-1.7,14.2,1.8,20.8,2.4,13.2,1.1,24.9-3.8,31.9-.8Z"/>
            <path class="cls-2" d="M3418.4-221.8c6.8,12.9,4.8,32.8,4.8,52.8s-1.9,51.9-.8,75.1c3.7,10.1,29.7,4.5,26.4,19.2-2.4,10.7-21.6,4.1-33.5,3.2-14.4-1.1-25.4,1.4-39.2,1.6-9.9.1-19-1-15.2-11.2,2.3-6.3,8-2.6,16.8-6.4,14-6,10.3-37.7,10.3-60s3.6-39-2.3-49.5c-2.2-3.9-6.7-5.3-12.8-7.2-6.8-2.1-11.4-2.7-12-8-.5-5.3,4.8-10,10.4-10.4,5-.3,9.4,1.8,15.2,2.4,11.6,1.3,23.3-3.3,32-1.6Z"/>
            <path class="cls-2" d="M2667-219.4c8.2,29.1,3.7,79.4,4,114.3,0,3.6.2,8.9,1.6,12,4.1,9.1,24.4,6.2,25.6,15.2,1.8,14.4-25,7.1-34.4,6.4-3.8-.3-12.7-.5-19.2,0-9.9.8-32.2,6.8-34.4-3.2-2.9-13.7,17.5-7.8,24-16.8,6.1-8.4,3.2-34.7,3.2-49.5v-26.4c0-15.7,1.3-30.6-9.6-35.2-4.3-1.8-11.3,1.2-16.8-4.8-4.7-21.1,15.3-10.3,31.2-10.4,9.6,0,17.6-4.7,24.7-1.6Z"/>
          </g>
          <path class="cls-1" d="M2534.3-296.9c17.7-3.4,34.5,13.6,28.8,31.2-7.8,24.2-56,17.8-47.2-15.2,1.9-7,7.8-13.9,18.4-16ZM3290.5-250.5c13.8,0,30.2-12.1,23.2-31.2-3.7-10.3-16.6-17-27.9-15.2-30,4.9-22.7,46.4,4.8,46.4Z"/>
        </g>
        <g>
          <path class="cls-6" d="M2280.8,307.5c6.4-1.1,13.9-1.8,22.2-1.8,15,0,25.6,3.6,32.7,10.1,7.3,6.6,11.5,15.9,11.5,29s-4.2,24-11.6,31.4c-7.7,7.5-20.1,11.6-35.8,11.6s-13.7-.4-18.9-1v-79.3ZM2291.3,378.9c2.6.4,6.5.5,10.5.5,22.4,0,34.4-12.5,34.4-34.3.1-19.1-10.7-31.2-32.7-31.2s-9.5.5-12.2,1.1v63.9Z"/>
          <path class="cls-6" d="M2374.4,312.8c0,3.6-2.5,6.5-6.7,6.5s-6.4-2.9-6.4-6.5,2.6-6.6,6.6-6.6,6.5,2.9,6.5,6.6ZM2362.7,387.1v-58h10.5v58h-10.5Z"/>
          <path class="cls-6" d="M2393.1,344.8c0-6.1-.2-10.9-.5-15.7h9.2l.5,9.5h.4c3.2-5.5,8.6-10.7,18.3-10.7s13.8,4.8,16.3,11.6h.2c1.8-3.4,4.2-5.8,6.6-7.5,3.5-2.6,7.2-4.1,12.7-4.1s19.2,5,19.2,25.2v34h-10.3v-32.7c0-11.3-4.2-17.9-12.6-17.9s-10.7,4.4-12.6,9.5c-.5,1.6-.8,3.4-.8,5.3v35.8h-10.3v-34.8c0-9.2-4.1-15.8-12.1-15.8s-11.4,5.3-13.1,10.5c-.6,1.4-.8,3.4-.8,5.2v34.9h-10.3v-42.3Z"/>
          <path class="cls-6" d="M2501.3,360c.2,14.3,9.2,20.1,19.9,20.1s12.2-1.3,16.1-3l1.9,7.5c-3.7,1.7-10.2,3.7-19.4,3.7-17.9,0-28.5-11.9-28.5-29.4s10.3-31.2,27.2-31.2,24,16.5,24,27.2-.1,3.7-.4,4.9h-40.7ZM2532.2,352.4c.1-6.6-2.8-17-14.6-17s-15.3,9.7-16.2,17h30.8Z"/>
          <path class="cls-6" d="M2557.9,344.8c0-6.1-.1-10.9-.5-15.7h9.3l.6,9.6h.2c2.9-5.4,9.6-10.8,19.2-10.8s20.5,4.8,20.5,24.7v34.5h-10.5v-33.4c0-9.3-3.5-17.1-13.4-17.1s-12.2,4.9-14.1,10.8c-.5,1.3-.7,3.1-.7,4.9v34.9h-10.5v-42.3Z"/>
          <path class="cls-6" d="M2625.3,376.4c3.2,1.9,8.7,4.1,14,4.1,7.5,0,11.1-3.7,11.1-8.6s-3-7.7-10.7-10.5c-10.5-3.8-15.5-9.5-15.5-16.4s7.7-17,20-17,11,1.6,14.1,3.6l-2.5,7.7c-2.3-1.4-6.5-3.5-11.9-3.5s-9.6,3.6-9.6,7.9,3.4,6.9,10.9,9.9c9.9,3.7,15.2,8.7,15.2,17.4s-8,17.5-21.6,17.5-12.2-1.7-16.3-4.1l2.5-7.9Z"/>
          <path class="cls-6" d="M2688.4,312.8c0,3.6-2.5,6.5-6.7,6.5s-6.4-2.9-6.4-6.5,2.6-6.6,6.6-6.6,6.5,2.9,6.5,6.6ZM2676.6,387.1v-58h10.5v58h-10.5Z"/>
          <path class="cls-6" d="M2759.6,357.6c0,21.5-15,30.8-28.9,30.8s-27.8-11.5-27.8-29.8,12.8-30.7,28.8-30.7,27.9,12.1,27.9,29.7ZM2713.7,358.2c0,12.7,7.2,22.3,17.5,22.3s17.6-9.5,17.6-22.5-4.9-22.2-17.4-22.2-17.7,11.5-17.7,22.4Z"/>
          <path class="cls-6" d="M2775.3,344.8c0-6.1-.1-10.9-.5-15.7h9.3l.6,9.6h.2c2.9-5.4,9.6-10.8,19.2-10.8s20.5,4.8,20.5,24.7v34.5h-10.5v-33.4c0-9.3-3.5-17.1-13.4-17.1s-12.2,4.9-14.1,10.8c-.5,1.3-.7,3.1-.7,4.9v34.9h-10.5v-42.3Z"/>
          <path class="cls-6" d="M2842.7,376.4c3.2,1.9,8.7,4.1,14,4.1,7.5,0,11.1-3.7,11.1-8.6s-3-7.7-10.7-10.5c-10.5-3.8-15.5-9.5-15.5-16.4s7.7-17,20-17,11,1.6,14.1,3.6l-2.5,7.7c-2.3-1.4-6.5-3.5-11.9-3.5s-9.6,3.6-9.6,7.9,3.4,6.9,10.9,9.9c9.9,3.7,15.2,8.7,15.2,17.4s-8,17.5-21.6,17.5-12.2-1.7-16.3-4.1l2.5-7.9Z"/>
          <path class="cls-6" d="M2974.3,357.6c0,21.5-15,30.8-28.9,30.8s-27.8-11.5-27.8-29.8,12.8-30.7,28.8-30.7,27.9,12.1,27.9,29.7ZM2928.4,358.2c0,12.7,7.2,22.3,17.5,22.3s17.6-9.5,17.6-22.5-4.9-22.2-17.4-22.2-17.7,11.5-17.7,22.4Z"/>
          <path class="cls-6" d="M2991.1,387.1v-50h-8v-8h8v-2.8c0-8.1,1.9-15.6,6.7-20.3,4-3.8,9.2-5.4,14.1-5.4s6.9.8,9,1.7l-1.4,8.2c-1.6-.7-3.6-1.3-6.7-1.3-9,0-11.3,7.8-11.3,16.8v3.1h14v8h-14v50h-10.4Z"/>
          <path class="cls-6" d="M3066,306.3v80.8h-10.5v-80.8h10.5Z"/>
          <path class="cls-6" d="M3087.4,344.8c0-6.1-.1-10.9-.5-15.7h9.3l.6,9.6h.2c2.9-5.4,9.6-10.8,19.2-10.8s20.5,4.8,20.5,24.7v34.5h-10.5v-33.4c0-9.3-3.5-17.1-13.4-17.1s-12.2,4.9-14.1,10.8c-.5,1.3-.7,3.1-.7,4.9v34.9h-10.5v-42.3Z"/>
          <path class="cls-6" d="M3157.4,387.1v-50h-8v-8h8v-2.8c0-8.1,1.9-15.6,6.7-20.3,4-3.8,9.2-5.4,14.1-5.4s7,.8,9,1.7l-1.4,8.2c-1.6-.7-3.6-1.3-6.7-1.3-9,0-11.3,7.8-11.3,16.8v3.1h14v8h-14v50h-10.4Z"/>
          <path class="cls-6" d="M3244.6,357.6c0,21.5-15,30.8-28.9,30.8s-27.8-11.5-27.8-29.8,12.8-30.7,28.8-30.7,27.9,12.1,27.9,29.7ZM3198.7,358.2c0,12.7,7.2,22.3,17.5,22.3s17.6-9.5,17.6-22.5-4.9-22.2-17.4-22.2-17.7,11.5-17.7,22.4Z"/>
          <path class="cls-6" d="M3260.3,347.1c0-6.8-.1-12.7-.5-18.1h9.2l.5,11.5h.4c2.6-7.8,9.1-12.7,16.2-12.7s1.9.1,2.9.2v9.9c-1.1-.2-2.2-.2-3.6-.2-7.4,0-12.7,5.5-14.1,13.4-.2,1.4-.4,3.2-.4,4.9v30.9h-10.5v-39.9Z"/>
          <path class="cls-6" d="M3302.4,344.8c0-6.1-.2-10.9-.5-15.7h9.2l.5,9.5h.4c3.2-5.5,8.6-10.7,18.3-10.7s13.8,4.8,16.3,11.6h.2c1.8-3.4,4.2-5.8,6.6-7.5,3.5-2.6,7.2-4.1,12.7-4.1s19.2,5,19.2,25.2v34h-10.3v-32.7c0-11.3-4.2-17.9-12.6-17.9s-10.7,4.4-12.6,9.5c-.5,1.6-.8,3.4-.8,5.3v35.8h-10.3v-34.8c0-9.2-4.1-15.8-12.1-15.8s-11.4,5.3-13.1,10.5c-.6,1.4-.8,3.4-.8,5.2v34.9h-10.3v-42.3Z"/>
          <path class="cls-6" d="M3445.5,373.2c0,5,.2,9.9.8,13.9h-9.5l-.8-7.3h-.4c-3.2,4.6-9.5,8.6-17.7,8.6-11.7,0-17.7-8.3-17.7-16.7,0-14,12.5-21.7,34.9-21.6v-1.2c0-4.7-1.3-13.4-13.2-13.3-5.5,0-11.1,1.6-15.2,4.3l-2.4-7.1c4.8-3,11.9-5,19.2-5,17.7,0,22.1,12.1,22.1,23.6v21.7ZM3435.3,357.5c-11.5-.2-24.6,1.8-24.6,13.1s4.6,10.1,9.8,10.1c7.7,0,12.6-4.8,14.3-9.7.4-1.2.5-2.4.5-3.4v-10.1Z"/>
          <path class="cls-6" d="M3477.1,315.2v13.9h15.1v8h-15.1v31.3c0,7.2,2,11.3,7.9,11.3s4.6-.2,6.1-.7l.5,8c-2,.7-5.3,1.4-9.3,1.4s-8.9-1.7-11.4-4.4c-2.9-3.2-4.1-8.4-4.1-15.2v-31.6h-9v-8h9v-10.8l10.3-3.1Z"/>
          <path class="cls-6" d="M3518.2,312.8c0,3.6-2.5,6.5-6.7,6.5s-6.4-2.9-6.4-6.5,2.6-6.6,6.6-6.6,6.5,2.9,6.5,6.6ZM3506.5,387.1v-58h10.5v58h-10.5Z"/>
          <path class="cls-6" d="M3589.4,357.6c0,21.5-15,30.8-28.9,30.8s-27.8-11.5-27.8-29.8,12.8-30.7,28.8-30.7,27.9,12.1,27.9,29.7ZM3543.5,358.2c0,12.7,7.2,22.3,17.5,22.3s17.6-9.5,17.6-22.5-4.9-22.2-17.4-22.2-17.7,11.5-17.7,22.4Z"/>
          <path class="cls-6" d="M3605.1,344.8c0-6.1-.1-10.9-.5-15.7h9.3l.6,9.6h.2c2.9-5.4,9.6-10.8,19.2-10.8s20.5,4.8,20.5,24.7v34.5h-10.5v-33.4c0-9.3-3.5-17.1-13.4-17.1s-12.2,4.9-14.1,10.8c-.5,1.3-.7,3.1-.7,4.9v34.9h-10.5v-42.3Z"/>
        </g>
      </g>
      <g>
        <g>
          <g>
            <path class="cls-3" d="M1201.2,590.9c9.6,6.5,0,11.9-5.6,16.8-3.5,3.1-7.5,7.1-9.6,9.6-26.2,31-19.8,90.2-19.2,143.9,9,3.4,34.1-6.5,35.2,7.2,1.1,13.3-15.9,7.6-26.4,12-13.7,5.7-9.6,33-9.6,55.2v24.7c0,15.1-1.2,28.2,10.4,33.6,9,4.2,25.2,1.6,26.3,10.4,2.2,17.5-34.8,6.3-44.8,5.6-17.8-1.3-25.6,3.1-42.3,4-12.2.7-19.6-2.9-17.6-11.2,1.8-7.5,25.5-6.2,30.4-12.8,3.4-4.5,2.4-15.7,2.4-24v-52.8c0-15.5,2.5-28.1-7.2-32.7-7.5-3.6-29.6,2.7-27.2-12.8,1.9-11.8,23.7-5.4,33.6-6.4,2.6-44.5-3-82.3,8-111.1,10.6-27.5,32-46.2,60-58.3,1.1-.5,1.9-.5,3.2-.8Z"/>
            <path class="cls-3" d="M1652.8,590.9c8.8,6.5-.3,12.7-3.2,15.2-4.1,3.6-9.7,8.2-12.8,12-25.6,31.4-18.8,89.3-18.3,143.1,10.9,2.6,34-5.3,35.1,7.2.8,8.4-9.4,9.7-14.4,10.4-9.7,1.4-16.4,1.3-20,8-4.7,8.8-1.6,35.1-1.6,48v24.8c0,16-1.7,28.8,9.6,34.4,11.4,5.6,26.6.2,27.2,11.2.9,16.1-31.5,5.7-44.8,4.8-15.6-1.1-27.3,3.2-43.2,4-12.3.6-19.1-4.1-16.8-11.2,1.9-5.8,8.8-5.4,16.8-7.2,7.6-1.8,13.2-3.9,15.2-8.8,2.3-5.7.8-17.7.8-25.6v-52.8c0-8,.8-18.4-2.4-23.2-3.5-5.3-9.8-5.2-18.4-6.4-7.7-1.1-14.5-3.2-14.4-9.6.2-13.4,24.1-7.2,34.4-8,2.7-44.6-3.1-80.3,7.2-109.5,7.4-20.8,21.7-35.8,40-48,7.4-5,14.2-10.4,24-12.8Z"/>
            <path class="cls-3" d="M265.9,614.9c23.8.3,52.4,4,72,10.4,20.3,6.7,36.7,18.2,50.4,30.4,25.8,23,52.4,60.6,52.7,108.7.3,48.2-25.7,86.6-53.6,111.1-26.9,23.5-57.9,35.5-105.5,39.1-2.8.2-6.2.9-9.6.8-1.3,0-7.2,1.9-7.2-2.4-1.9-8,5.9-5.9,8.8-6.4,15.3-2,26.9-4.2,40-10.4,48.6-23,87.9-68.2,83.2-144.6-3.6-57.3-39.1-95.7-80.7-116.8-12.1-6.1-23.6-8.6-39.2-10.4-3.8-.4-8.3-.3-12-2.4v-4.8c-.1-1.1-.2-2.3.8-2.4Z"/>
            <path class="cls-3" d="M983,750c35.1-2.9,61.7,9.8,79.1,28,5.6,5.8,12.7,14.5,16.8,23.2,10.4,22,8,48.6,0,66.3-13.6,30.2-51.2,50.1-91.9,48.8-34-1.1-66.2-21.6-79.1-47.2-4.5-8.9-7.2-18.4-8-28.8-2.4-30.2,10.1-50.1,23.2-63.9,15.1-16.1,31.2-24,59.9-26.4ZM942.2,805.9c-9.5,29.4.8,64.5,16.8,78.3,16.6,14.3,46.2,16.8,64.7,4.8,6.5-4.2,13.6-12.3,17.6-19.2,25.4-44.7-2-105.9-54.4-100.8-26.5,2.6-38,15.9-44.8,36.8Z"/>
            <path class="cls-3" d="M1415.4,800.3c-6.4-6-.9-12.8,2.4-16.8,3.9-4.6,9.8-9,13.6-12,11.4-8.9,26.9-20,48-16.8,34.4,5.2,26.4,49.9,26.4,89.5s-3,34.8,1.6,44c1.9,3.8,6.8,5.3,12,7.2,6.1,2.3,11,3.6,9.6,9.6-2,8.6-34.2,2.8-46.4,3.2-14.9.5-39.8,8.2-39.9-5.6-.1-9.5,12.4-7.3,19.2-10.4,12.7-5.9,8.8-31.1,8.8-56s7.6-53.8-11.2-55.9c-20.7-2.3-24.1,22.2-44,20Z"/>
            <path class="cls-3" d="M693.6,899.4c2.9-4.1,9.2-3,14.4-4.8,12.7-4.3,12.8-13,12.8-32v-49.6c0-15.9,1.6-29.7-10.4-32-21.5-4.2-28.4,21.8-47.1,19.2-2-14.2,8.2-22.2,16.8-28.8,12.3-9.3,27.7-19.5,48-16,11.1,1.9,25.6,15.1,27.2,26.4,1.9,13.7,0,33.6,0,51.9s-4.4,50.3,6.4,57.6c6.3,4.2,21.5,1.1,20.8,12-.5,8.9-14.2,7.5-24.8,6.4-10.7-1.1-19.2-2.3-30.4-1.6-12.5.8-34.9,10.1-33.5-8.8Z"/>
            <path class="cls-3" d="M763.2,798.7c-2.6-10.8,6.2-17.3,12.8-23.2,10.6-9.4,22.8-18.4,40-20,16.5-1.5,32.6,5.4,37.6,19.2,2.5,6.9,2.3,17.4,2.4,27.2.2,19.9,1,35.1,0,56.8-.5,10.3-1.3,21.3,1.6,27.2,2,4,7.3,6.5,12,8,6.6,2.2,11.7,1.8,12.7,7.2,2,10.4-9.1,9.8-20.7,8.8-10.4-1-20-2.1-28.8-1.6-10.1.6-39.8,9.6-38.4-6.4.8-9.9,16.1-4.8,23.2-11.2,7.7-7,4-31.2,4-48.8v-26.4c0-16.6,3.9-31.9-10.4-34.4-11.8-2-19.9,6.8-24.8,10.4-5.8,4.2-13.3,12.8-23.1,7.2Z"/>
            <path class="cls-3" d="M536.1,758.8c5.8,6.8,3.5,13.7,3.2,20.8-.7,15.4,0,34.3,0,55.2s-3.2,43.3,2.4,52c5.9,9.2,28,2.5,24.8,17.6-2.5,11.9-38,2.8-53.6,4-9.1.7-37.9,9-36-8,1-8.7,19.3-7.8,23.2-12,6.7-7.2,4-38.1,4-52s3.7-43.9-2.4-53.6c-2.4-3.9-6.2-4.6-12-6.4-4.9-1.5-10.1-1.8-12-5.6-2.9-6.2.9-12.3,6.4-13.6,5.9-1.4,12.9,1.8,19.2,2.4,13.2,1.4,26-3.8,32.8-.8Z"/>
            <path class="cls-3" d="M1287.5,758.8c4.9,8.8,3.2,19.6,3.2,29.6v64.7c0,10.6-2,23.7.8,31.2,4,10.7,24,6.5,25.6,16,3,17.6-37.6,6.8-53.6,8-5.1.3-13.9,3.9-23.2,3.2-8.1-.6-14.6-6-12-13.6,2.4-7.3,18.6-4.7,23.2-10.4,5.8-7.3,3.2-37.4,3.2-50.4v-27.2c0-20,1.7-28.9-12.8-33.6-6.8-2.2-11.5-1.3-13.6-5.6-2.9-5.8,1.1-12.3,6.4-13.6,6.5-1.7,14.2,1.8,20.8,2.4,13.2,1.1,24.9-3.8,31.9-.8Z"/>
            <path class="cls-3" d="M1401,758c6.8,12.9,4.8,32.8,4.8,52.8s-1.9,51.9-.8,75.1c3.7,10.1,29.7,4.5,26.4,19.2-2.4,10.7-21.6,4.1-33.5,3.2-14.4-1.1-25.4,1.4-39.2,1.6-9.9.1-19-1-15.2-11.2,2.3-6.3,8-2.6,16.8-6.4,14-6,10.3-37.7,10.3-60s3.6-39-2.3-49.5c-2.2-3.9-6.7-5.3-12.8-7.2-6.8-2.1-11.4-2.7-12-8-.5-5.3,4.8-10,10.4-10.4,5-.3,9.4,1.8,15.2,2.4,11.6,1.3,23.3-3.3,32-1.6Z"/>
            <path class="cls-3" d="M649.6,760.4c8.2,29.1,3.7,79.4,4,114.3,0,3.6.2,8.9,1.6,12,4.1,9.1,24.4,6.2,25.6,15.2,1.8,14.4-25,7.1-34.4,6.4-3.8-.3-12.7-.5-19.2,0-9.9.8-32.2,6.8-34.4-3.2-2.9-13.7,17.5-7.8,24-16.8,6.1-8.4,3.2-34.7,3.2-49.5v-26.4c0-15.7,1.3-30.6-9.6-35.2-4.3-1.8-11.3,1.2-16.8-4.8-4.7-21.1,15.3-10.3,31.2-10.4,9.6,0,17.6-4.7,24.7-1.6Z"/>
          </g>
          <path class="cls-1" d="M516.9,682.8c17.7-3.4,34.5,13.6,28.8,31.2-7.8,24.2-56,17.8-47.2-15.2,1.9-7,7.8-13.9,18.4-16ZM1273.1,729.2c13.8,0,30.2-12.1,23.2-31.2-3.7-10.3-16.6-17-27.9-15.2-30,4.9-22.7,46.4,4.8,46.4Z"/>
        </g>
        <g>
          <path class="cls-6" d="M263.4,957.2c6.4-1.1,13.9-1.8,22.2-1.8,15,0,25.6,3.6,32.7,10.1,7.3,6.6,11.5,15.9,11.5,29s-4.2,24-11.6,31.4c-7.7,7.5-20.1,11.6-35.8,11.6s-13.7-.4-18.9-1v-79.3ZM273.8,1028.7c2.6.4,6.5.5,10.5.5,22.4,0,34.4-12.5,34.4-34.3.1-19.1-10.7-31.2-32.7-31.2s-9.5.5-12.2,1.1v63.9Z"/>
          <path class="cls-6" d="M357,962.5c0,3.6-2.5,6.5-6.7,6.5s-6.4-2.9-6.4-6.5,2.6-6.6,6.6-6.6,6.5,2.9,6.5,6.6ZM345.3,1036.8v-58h10.5v58h-10.5Z"/>
          <path class="cls-6" d="M375.7,994.5c0-6.1-.2-10.9-.5-15.7h9.2l.5,9.5h.4c3.2-5.5,8.6-10.7,18.3-10.7s13.8,4.8,16.3,11.6h.2c1.8-3.4,4.2-5.8,6.6-7.5,3.5-2.6,7.2-4.1,12.7-4.1s19.2,5,19.2,25.2v34h-10.3v-32.7c0-11.3-4.2-17.9-12.6-17.9s-10.7,4.4-12.6,9.5c-.5,1.6-.8,3.4-.8,5.3v35.8h-10.3v-34.8c0-9.2-4.1-15.8-12.1-15.8s-11.4,5.3-13.1,10.5c-.6,1.4-.8,3.4-.8,5.2v34.9h-10.3v-42.3Z"/>
          <path class="cls-6" d="M483.9,1009.7c.2,14.3,9.2,20.1,19.9,20.1s12.2-1.3,16.1-3l1.9,7.5c-3.7,1.7-10.2,3.7-19.4,3.7-17.9,0-28.5-11.9-28.5-29.4s10.3-31.2,27.2-31.2,24,16.5,24,27.2-.1,3.7-.4,4.9h-40.7ZM514.8,1002.2c.1-6.6-2.8-17-14.6-17s-15.3,9.7-16.2,17h30.8Z"/>
          <path class="cls-6" d="M540.5,994.5c0-6.1-.1-10.9-.5-15.7h9.3l.6,9.6h.2c2.9-5.4,9.6-10.8,19.2-10.8s20.5,4.8,20.5,24.7v34.5h-10.5v-33.4c0-9.3-3.5-17.1-13.4-17.1s-12.2,4.9-14.1,10.8c-.5,1.3-.7,3.1-.7,4.9v34.9h-10.5v-42.3Z"/>
          <path class="cls-6" d="M607.9,1026.1c3.2,1.9,8.7,4.1,14,4.1,7.5,0,11.1-3.7,11.1-8.6s-3-7.7-10.7-10.5c-10.5-3.8-15.5-9.5-15.5-16.4s7.7-17,20-17,11,1.6,14.1,3.6l-2.5,7.7c-2.3-1.4-6.5-3.5-11.9-3.5s-9.6,3.6-9.6,7.9,3.4,6.9,10.9,9.9c9.9,3.7,15.2,8.7,15.2,17.4s-8,17.5-21.6,17.5-12.2-1.7-16.3-4.1l2.5-7.9Z"/>
          <path class="cls-6" d="M671,962.5c0,3.6-2.5,6.5-6.7,6.5s-6.4-2.9-6.4-6.5,2.6-6.6,6.6-6.6,6.5,2.9,6.5,6.6ZM659.2,1036.8v-58h10.5v58h-10.5Z"/>
          <path class="cls-6" d="M742.1,1007.3c0,21.5-15,30.8-28.9,30.8s-27.8-11.5-27.8-29.8,12.8-30.7,28.8-30.7,27.9,12.1,27.9,29.7ZM696.2,1007.9c0,12.7,7.2,22.3,17.5,22.3s17.6-9.5,17.6-22.5-4.9-22.2-17.4-22.2-17.7,11.5-17.7,22.4Z"/>
          <path class="cls-6" d="M757.8,994.5c0-6.1-.1-10.9-.5-15.7h9.3l.6,9.6h.2c2.9-5.4,9.6-10.8,19.2-10.8s20.5,4.8,20.5,24.7v34.5h-10.5v-33.4c0-9.3-3.5-17.1-13.4-17.1s-12.2,4.9-14.1,10.8c-.5,1.3-.7,3.1-.7,4.9v34.9h-10.5v-42.3Z"/>
          <path class="cls-6" d="M825.3,1026.1c3.2,1.9,8.7,4.1,14,4.1,7.5,0,11.1-3.7,11.1-8.6s-3-7.7-10.7-10.5c-10.5-3.8-15.5-9.5-15.5-16.4s7.7-17,20-17,11,1.6,14.1,3.6l-2.5,7.7c-2.3-1.4-6.5-3.5-11.9-3.5s-9.6,3.6-9.6,7.9,3.4,6.9,10.9,9.9c9.9,3.7,15.2,8.7,15.2,17.4s-8,17.5-21.6,17.5-12.2-1.7-16.3-4.1l2.5-7.9Z"/>
          <path class="cls-6" d="M956.9,1007.3c0,21.5-15,30.8-28.9,30.8s-27.8-11.5-27.8-29.8,12.8-30.7,28.8-30.7,27.9,12.1,27.9,29.7ZM911,1007.9c0,12.7,7.2,22.3,17.5,22.3s17.6-9.5,17.6-22.5-4.9-22.2-17.4-22.2-17.7,11.5-17.7,22.4Z"/>
          <path class="cls-6" d="M973.7,1036.8v-50h-8v-8h8v-2.8c0-8.1,1.9-15.6,6.7-20.3,4-3.8,9.2-5.4,14.1-5.4s6.9.8,9,1.7l-1.4,8.2c-1.6-.7-3.6-1.3-6.7-1.3-9,0-11.3,7.8-11.3,16.8v3.1h14v8h-14v50h-10.4Z"/>
          <path class="cls-6" d="M1048.6,956v80.8h-10.5v-80.8h10.5Z"/>
          <path class="cls-6" d="M1070,994.5c0-6.1-.1-10.9-.5-15.7h9.3l.6,9.6h.2c2.9-5.4,9.6-10.8,19.2-10.8s20.5,4.8,20.5,24.7v34.5h-10.5v-33.4c0-9.3-3.5-17.1-13.4-17.1s-12.2,4.9-14.1,10.8c-.5,1.3-.7,3.1-.7,4.9v34.9h-10.5v-42.3Z"/>
          <path class="cls-6" d="M1140,1036.8v-50h-8v-8h8v-2.8c0-8.1,1.9-15.6,6.7-20.3,4-3.8,9.2-5.4,14.1-5.4s7,.8,9,1.7l-1.4,8.2c-1.6-.7-3.6-1.3-6.7-1.3-9,0-11.3,7.8-11.3,16.8v3.1h14v8h-14v50h-10.4Z"/>
          <path class="cls-6" d="M1227.2,1007.3c0,21.5-15,30.8-28.9,30.8s-27.8-11.5-27.8-29.8,12.8-30.7,28.8-30.7,27.9,12.1,27.9,29.7ZM1181.3,1007.9c0,12.7,7.2,22.3,17.5,22.3s17.6-9.5,17.6-22.5-4.9-22.2-17.4-22.2-17.7,11.5-17.7,22.4Z"/>
          <path class="cls-6" d="M1242.9,996.9c0-6.8-.1-12.7-.5-18.1h9.2l.5,11.5h.4c2.6-7.8,9.1-12.7,16.2-12.7s1.9.1,2.9.2v9.9c-1.1-.2-2.2-.2-3.6-.2-7.4,0-12.7,5.5-14.1,13.4-.2,1.4-.4,3.2-.4,4.9v30.9h-10.5v-39.9Z"/>
          <path class="cls-6" d="M1285,994.5c0-6.1-.2-10.9-.5-15.7h9.2l.5,9.5h.4c3.2-5.5,8.6-10.7,18.3-10.7s13.8,4.8,16.3,11.6h.2c1.8-3.4,4.2-5.8,6.6-7.5,3.5-2.6,7.2-4.1,12.7-4.1s19.2,5,19.2,25.2v34h-10.3v-32.7c0-11.3-4.2-17.9-12.6-17.9s-10.7,4.4-12.6,9.5c-.5,1.6-.8,3.4-.8,5.3v35.8h-10.3v-34.8c0-9.2-4.1-15.8-12.1-15.8s-11.4,5.3-13.1,10.5c-.6,1.4-.8,3.4-.8,5.2v34.9h-10.3v-42.3Z"/>
          <path class="cls-6" d="M1428.1,1022.9c0,5,.2,9.9.8,13.9h-9.5l-.8-7.3h-.4c-3.2,4.6-9.5,8.6-17.7,8.6-11.7,0-17.7-8.3-17.7-16.7,0-14,12.5-21.7,34.9-21.6v-1.2c0-4.7-1.3-13.4-13.2-13.3-5.5,0-11.1,1.6-15.2,4.3l-2.4-7.1c4.8-3,11.9-5,19.2-5,17.7,0,22.1,12.1,22.1,23.6v21.7ZM1417.9,1007.2c-11.5-.2-24.6,1.8-24.6,13.1s4.6,10.1,9.8,10.1c7.7,0,12.6-4.8,14.3-9.7.4-1.2.5-2.4.5-3.4v-10.1Z"/>
          <path class="cls-6" d="M1459.7,964.9v13.9h15.1v8h-15.1v31.3c0,7.2,2,11.3,7.9,11.3s4.6-.2,6.1-.7l.5,8c-2,.7-5.3,1.4-9.3,1.4s-8.9-1.7-11.4-4.4c-2.9-3.2-4.1-8.4-4.1-15.2v-31.6h-9v-8h9v-10.8l10.3-3.1Z"/>
          <path class="cls-6" d="M1500.8,962.5c0,3.6-2.5,6.5-6.7,6.5s-6.4-2.9-6.4-6.5,2.6-6.6,6.6-6.6,6.5,2.9,6.5,6.6ZM1489.1,1036.8v-58h10.5v58h-10.5Z"/>
          <path class="cls-6" d="M1572,1007.3c0,21.5-15,30.8-28.9,30.8s-27.8-11.5-27.8-29.8,12.8-30.7,28.8-30.7,27.9,12.1,27.9,29.7ZM1526.1,1007.9c0,12.7,7.2,22.3,17.5,22.3s17.6-9.5,17.6-22.5-4.9-22.2-17.4-22.2-17.7,11.5-17.7,22.4Z"/>
          <path class="cls-6" d="M1587.7,994.5c0-6.1-.1-10.9-.5-15.7h9.3l.6,9.6h.2c2.9-5.4,9.6-10.8,19.2-10.8s20.5,4.8,20.5,24.7v34.5h-10.5v-33.4c0-9.3-3.5-17.1-13.4-17.1s-12.2,4.9-14.1,10.8c-.5,1.3-.7,3.1-.7,4.9v34.9h-10.5v-42.3Z"/>
        </g>
      </g>
      <text class="cls-4" transform="translate(2302 132)"><tspan x="0" y="0">marketing agency</tspan></text>
    </g>
  </g>
</svg>